<svg xmlns="http://www.w3.org/2000/svg" xmlns:xlink="http://www.w3.org/1999/xlink" viewBox="0 0 21 24"><path d="M19.5,7.5H16.12V5.62a5.63,5.63,0,0,0-11.25,0V7.5H1.5A1.5,1.5,0,0,0,0,9V20.25A3.75,3.75,0,0,0,3.75,24h13.5A3.75,3.75,0,0,0,21,20.25V9a1.5,1.5,0,0,0-1.5-1.5M6.87,5.62a3.63,3.63,0,0,1,7.25,0V7.5H6.87ZM19,20.25A1.76,1.76,0,0,1,17.25,22H3.75A1.75,1.75,0,0,1,2,20.25V9.5H19Z" fill="currentColor"/><polygon points="13.9 10.97 10.49 14.37 7.09 10.97 5.68 12.38 9.08 15.78 5.75 19.12 7.16 20.53 10.49 17.2 13.83 20.53 15.24 19.12 11.91 15.78 15.31 12.38 13.9 10.97" fill="currentColor"/></svg>