<svg xmlns="http://www.w3.org/2000/svg" xmlns:xlink="http://www.w3.org/1999/xlink" viewBox="0 0 21 24"><path d="M19.5,7.5H16.12V5.62a5.63,5.63,0,0,0-11.25,0V7.5H1.5A1.5,1.5,0,0,0,0,9V20.25A3.75,3.75,0,0,0,3.75,24h13.5A3.75,3.75,0,0,0,21,20.25V9a1.5,1.5,0,0,0-1.5-1.5M6.07,5.62a4.43,4.43,0,0,1,8.85,0V7.5H6.07ZM19.8,20.25a2.55,2.55,0,0,1-2.55,2.55H3.75A2.55,2.55,0,0,1,1.2,20.25V9a.29.29,0,0,1,.3-.3h18a.29.29,0,0,1,.3.3Z" fill="currentColor"/><polygon points="11.1 11.76 9.9 11.76 9.9 15.15 6.51 15.15 6.51 16.35 9.9 16.35 9.9 19.74 11.1 19.74 11.1 16.35 14.49 16.35 14.49 15.15 11.1 15.15 11.1 11.76" fill="currentColor"/></svg>