<svg xmlns="http://www.w3.org/2000/svg" xmlns:xlink="http://www.w3.org/1999/xlink" viewBox="0 0 22 21"><path d="M1.4,18.13a4.93,4.93,0,0,0,7.1,0l8.57-8.66a3.07,3.07,0,0,0,0-4.33,2.92,2.92,0,0,0-4.23,0l-7.1,7.25a1,1,0,0,0,0,1.41.94.94,0,0,0,1.38,0l7.1-7.25a.92.92,0,0,1,1.37,0,1,1,0,0,1,0,1.41L7,16.72a2.93,2.93,0,0,1-4.24,0,3.09,3.09,0,0,1,0-4.33l8.58-8.66a4.91,4.91,0,0,1,7.09,0,5.19,5.19,0,0,1,0,7.25l-8.22,8.31a1,1,0,0,0,0,1.41.94.94,0,0,0,1.38,0l8.32-8.41a7.28,7.28,0,0,0,0-10.17,6.91,6.91,0,0,0-9.95,0L1.4,10.78a5.52,5.52,0,0,0,0,7.35" fill="currentColor"/></svg>