<svg xmlns="http://www.w3.org/2000/svg" xmlns:xlink="http://www.w3.org/1999/xlink" viewBox="0 0 27 24"><path d="M7.55,1.2a6.68,6.68,0,0,1,5,2.46l.91,1.06.91-1.06a6.66,6.66,0,0,1,5-2.45,6.1,6.1,0,0,1,3.91,1.48,6.71,6.71,0,0,1,1,9.44c-2.13,2.72-8.71,8.62-10.84,10.49-2.12-1.87-8.71-7.77-10.84-10.49a6.78,6.78,0,0,1,1-9.45A5.89,5.89,0,0,1,7.55,1.2m0-1.2A7.08,7.08,0,0,0,2.91,1.76a8,8,0,0,0-1.2,11.11c2.2,2.83,8.89,8.8,11.08,10.73a1.38,1.38,0,0,0,.51.37.63.63,0,0,0,.19,0,.58.58,0,0,0,.19,0,1.38,1.38,0,0,0,.51-.37c2.19-1.93,8.88-7.9,11.09-10.73A8,8,0,0,0,24.07,1.76,7.26,7.26,0,0,0,19.4,0a7.85,7.85,0,0,0-5.91,2.86A7.91,7.91,0,0,0,7.55,0" fill="currentColor"/></svg>