<svg xmlns="http://www.w3.org/2000/svg" xmlns:xlink="http://www.w3.org/1999/xlink" viewBox="0 0 27 24"><path d="M13.47,23.4l-.28-.24c-2-1.8-8.82-7.85-11-10.66A7.37,7.37,0,0,1,3.3,2.22,6.49,6.49,0,0,1,7.55.6,7.34,7.34,0,0,1,13,3.26l.45.54L14,3.26A7.26,7.26,0,0,1,19.4.61a6.71,6.71,0,0,1,4.29,1.61A7.38,7.38,0,0,1,24.8,12.5c-2.18,2.8-9,8.86-11,10.66a3.75,3.75,0,0,1-.3.24h0" fill="#e1f10d"/><path d="M7.55,1.2a6.68,6.68,0,0,1,5,2.46l.91,1.06.91-1.06a6.66,6.66,0,0,1,5-2.45,6.1,6.1,0,0,1,3.91,1.48,6.71,6.71,0,0,1,1,9.44c-2.13,2.72-8.71,8.62-10.84,10.49-2.12-1.87-8.71-7.77-10.84-10.49a6.78,6.78,0,0,1,1-9.45A5.89,5.89,0,0,1,7.55,1.2m0-1.2A7.08,7.08,0,0,0,2.91,1.76a8,8,0,0,0-1.2,11.11c2.2,2.83,8.89,8.8,11.08,10.73a1.38,1.38,0,0,0,.51.37.63.63,0,0,0,.19,0,.58.58,0,0,0,.19,0,1.38,1.38,0,0,0,.51-.37c2.19-1.93,8.88-7.9,11.09-10.73A8,8,0,0,0,24.07,1.76,7.26,7.26,0,0,0,19.4,0a7.85,7.85,0,0,0-5.91,2.86A7.91,7.91,0,0,0,7.55,0" fill="currentColor"/><polygon points="17.49 10.74 14.1 10.74 14.1 7.36 12.9 7.36 12.9 10.74 9.51 10.74 9.51 11.94 12.9 11.94 12.9 15.33 14.1 15.33 14.1 11.94 17.49 11.94 17.49 10.74" fill="currentColor"/></svg>