<svg xmlns="http://www.w3.org/2000/svg" xmlns:xlink="http://www.w3.org/1999/xlink" viewBox="0 0 25.25 24"><path d="M25.18,13.28A12,12,0,0,0,14.53.07H12.4A11.85,11.85,0,0,0,9.09.74h0L9,.79H7.62a1,1,0,0,0-.53.78,1.09,1.09,0,0,0,.11.58,1,1,0,0,0,1.36.41,10,10,0,1,1,3.62,18.77,9.72,9.72,0,0,1-3.61-1.1,1,1,0,0,0-1.35.42.94.94,0,0,0-.11.36,1,1,0,0,0,.53,1h.5l0,0H8.6l.05,0h.11l0,0h.92l0,0h.45l0,0H12A12,12,0,0,0,25.18,13.28" fill="currentColor"/><path d="M13.36,11H3.41l2.81-2.8a1,1,0,0,0,0-1.42,1,1,0,0,0-1.41,0L.29,11.26a1,1,0,0,0-.21.32,1,1,0,0,0,0,.77,1,1,0,0,0,.21.32l4.59,4.59a1,1,0,0,0,.71.29,1,1,0,0,0,.71-.29,1,1,0,0,0,0-1.41L3.41,13h10a1,1,0,0,0,0-2" fill="currentColor"/></svg>