<svg xmlns="http://www.w3.org/2000/svg" xmlns:xlink="http://www.w3.org/1999/xlink" viewBox="0 0 23 24.38"><path d="M19.85,1.8A2.55,2.55,0,0,1,22.4,4.35V14.4a2.5,2.5,0,0,1-2.5,2.5H12.69l-.15,1A7,7,0,0,1,6.67,23.7V16.9H4.3a2.5,2.5,0,0,1-2.5-2.51v-10A2.55,2.55,0,0,1,4.35,1.8h15.5m0-1.2H4.35A3.75,3.75,0,0,0,.6,4.35v10A3.71,3.71,0,0,0,4.3,18.1H5.47V25c7.28,0,8.25-6.87,8.25-6.87H19.9a3.7,3.7,0,0,0,3.7-3.7v-10A3.75,3.75,0,0,0,19.85.6" transform="translate(-0.6 -0.6)" fill="currentColor"/><rect x="6.48" y="6.31" width="10.04" height="1.2" fill="currentColor"/><rect x="6.48" y="10.04" width="10.04" height="1.2" fill="currentColor"/></svg>