<svg xmlns="http://www.w3.org/2000/svg" xmlns:xlink="http://www.w3.org/1999/xlink" viewBox="0 0 24.04 24"><path d="M12,1.2c2.65,0,4.8,2.69,4.8,6s-2.15,6-4.8,6-4.8-2.69-4.8-6,2.15-6,4.8-6M12,0C8.71,0,6,3.22,6,7.2s2.69,7.2,6,7.2,6-3.22,6-7.2S15.33,0,12,0" fill="currentColor"/><path d="M17,16.51a1.84,1.84,0,0,1,.6.1,9.73,9.73,0,0,1,5.1,4.45,1.09,1.09,0,0,1,0,1.11,1.37,1.37,0,0,1-1.17.63h-19a1.39,1.39,0,0,1-1.19-.65.94.94,0,0,1,0-1,9.74,9.74,0,0,1,5.14-4.47l0,0,0,0a1.12,1.12,0,0,1,.47-.1,1.8,1.8,0,0,1,.63.12,8.58,8.58,0,0,0,8.82-.06,1,1,0,0,1,.53-.12m0-1.2a2.21,2.21,0,0,0-1.15.29A7.14,7.14,0,0,1,12,16.68,7.14,7.14,0,0,1,8.18,15.6,3.18,3.18,0,0,0,7,15.37a2.26,2.26,0,0,0-1,.23,10.94,10.94,0,0,0-5.76,5A2.37,2.37,0,0,0,2.54,24h19a2.43,2.43,0,0,0,2.28-3.48,10.94,10.94,0,0,0-5.76-5,3.15,3.15,0,0,0-1-.17" fill="currentColor"/></svg>