<svg xmlns="http://www.w3.org/2000/svg" xmlns:xlink="http://www.w3.org/1999/xlink" viewBox="0 0 61.05 51.52"><defs><clipPath id="a" transform="translate(0 0)"><rect width="61.05" height="51.52" fill="none"/></clipPath></defs><g clip-path="url(#a)"><path d="M19.29,3.7h0a13.29,13.29,0,0,1,10,4.88l2.81,3.27,2.8-3.27a13.22,13.22,0,0,1,9.88-4.85,12,12,0,0,1,7.67,2.9,13.29,13.29,0,0,1,2,18.72c-4.28,5.48-17.21,17.13-22.38,21.72C26.88,42.49,14,30.84,9.67,25.35A13.45,13.45,0,0,1,11.73,6.6a11.57,11.57,0,0,1,7.56-2.9m0-3.7a15.26,15.26,0,0,0-10,3.78A17.18,17.18,0,0,0,6.75,27.62c4.74,6.08,19.08,18.9,23.79,23.06a3.33,3.33,0,0,0,1.09.78,1.52,1.52,0,0,0,.42.06,1.4,1.4,0,0,0,.41-.06,3.34,3.34,0,0,0,1.1-.78c4.7-4.16,19-17,23.79-23.06A17,17,0,0,0,54.76,3.78,15.62,15.62,0,0,0,44.73,0,16.84,16.84,0,0,0,32.05,6.17,17,17,0,0,0,19.29,0" transform="translate(0 0)" fill="#bebc65"/><polyline points="1.85 24.84 11.6 24.84 17.72 12.65 21.76 24.45 25.05 21.55 29.46 32.09 33.9 23.96 46.21 23.96" fill="none" stroke="#bebc65" stroke-linecap="round" stroke-linejoin="round" stroke-width="3.7"/></g></svg>