<svg xmlns="http://www.w3.org/2000/svg" xmlns:xlink="http://www.w3.org/1999/xlink" viewBox="0 0 64.87 53.12">
<path d="M49.93,12.85a14.24,14.24,0,0,0-3.45.43A14.13,14.13,0,0,0,31.25.85a14,14,0,0,0-7.83,3.2,14.09,14.09,0,0,0-5.13,10.58v.3a14,14,0,0,0,.91,5,1,1,0,0,0,1.44.57,1,1,0,0,0,.53-1.31,12.16,12.16,0,0,1-.78-4.28v-.25a12,12,0,0,1,24-.72,14.12,14.12,0,0,0-4.28,2.81,1.05,1.05,0,0,0,.05,1.55,1.07,1.07,0,0,0,1.44,0,12.16,12.16,0,0,1,4.27-2.65,11.9,11.9,0,0,1,4-.7A12,12,0,1,1,49.76,39H39.11a13.68,13.68,0,0,0,1.29-2,1.06,1.06,0,0,0-.53-1.46,1.08,1.08,0,0,0-1.36.49,12,12,0,0,1-21.25.17,1.06,1.06,0,1,0-1.87,1A12.88,12.88,0,0,0,16.58,39H15.14A12,12,0,1,1,15,15h.34a1.07,1.07,0,0,0,1.06-.87,1,1,0,0,0-1-1.25H15a14.14,14.14,0,1,0,.21,28.27h3.39a14.13,14.13,0,0,0,18.55,0H49v8.15a1,1,0,0,1-.95,1H16.77a1,1,0,0,1-.95-1V45.56a1.06,1.06,0,0,0-2.12,0v3.69a3.06,3.06,0,0,0,3.07,3.07H48.11a3.07,3.07,0,0,0,3.07-3.07V41a14.11,14.11,0,0,0-1.25-28.17" fill="#9c9975"/><path d="M49.93,12.85a14.24,14.24,0,0,0-3.45.43A14.13,14.13,0,0,0,31.25.85a14,14,0,0,0-7.83,3.2,14.09,14.09,0,0,0-5.13,10.58v.3a14,14,0,0,0,.91,5,1,1,0,0,0,1.44.57,1,1,0,0,0,.53-1.31,12.16,12.16,0,0,1-.78-4.28v-.25a12,12,0,0,1,24-.72,14.12,14.12,0,0,0-4.28,2.81,1.05,1.05,0,0,0,.05,1.55,1.07,1.07,0,0,0,1.44,0,12.16,12.16,0,0,1,4.27-2.65,11.9,11.9,0,0,1,4-.7A12,12,0,1,1,49.76,39H39.11a13.68,13.68,0,0,0,1.29-2,1.06,1.06,0,0,0-.53-1.46,1.08,1.08,0,0,0-1.36.49,12,12,0,0,1-21.25.17,1.06,1.06,0,1,0-1.87,1A12.88,12.88,0,0,0,16.58,39H15.14A12,12,0,1,1,15,15h.34a1.07,1.07,0,0,0,1.06-.87,1,1,0,0,0-1-1.25H15a14.14,14.14,0,1,0,.21,28.27h3.39a14.13,14.13,0,0,0,18.55,0H49v8.15a1,1,0,0,1-.95,1H16.77a1,1,0,0,1-.95-1V45.56a1.06,1.06,0,0,0-2.12,0v3.69a3.06,3.06,0,0,0,3.07,3.07H48.11a3.07,3.07,0,0,0,3.07-3.07V41a14.11,14.11,0,0,0-1.25-28.17Z" fill="none" stroke="#9c9975" stroke-miterlimit="10" stroke-width="1.6"/></svg>