<svg xmlns="http://www.w3.org/2000/svg" xmlns:xlink="http://www.w3.org/1999/xlink" viewBox="0 0 45.2 51.52"><defs><clipPath id="a" transform="translate(-1.85 -1.95)"><rect width="48.9" height="55.68" fill="none"/></clipPath></defs><g clip-path="url(#a)"><path d="M24.45,5.84,43.35,12V26A20.37,20.37,0,0,1,33.77,43l-9.32,6.07L15.12,43A20.38,20.38,0,0,1,5.55,26V12l18.9-6.15m0-3.89L1.85,9.31V26a24,24,0,0,0,11.25,20l11.35,7.39,11.34-7.39A24,24,0,0,0,47.05,26V9.31Z" transform="translate(-1.85 -1.95)" fill="#959e18"/><polyline points="14.96 23.09 20.39 28.52 32.08 16.83" fill="none" stroke="#959e18" stroke-miterlimit="10" stroke-width="3.7"/></g></svg>