<svg xmlns="http://www.w3.org/2000/svg" xmlns:xlink="http://www.w3.org/1999/xlink" viewBox="0 0 48.68 51.52"><defs><clipPath id="a" transform="translate(0 0)"><rect width="48.68" height="51.52" fill="none"/></clipPath></defs><g clip-path="url(#a)"><path d="M48.63,1.41A1.84,1.84,0,0,0,46.84,0h0C37.14.06,13.57,1.69,4.05,15.42-.89,22.56-1.31,31.82,2.79,43c0,.08.1.14.14.22A43.92,43.92,0,0,0,.88,49.3a1.83,1.83,0,0,0,1.41,2.18,1.72,1.72,0,0,0,.39,0,1.85,1.85,0,0,0,1.8-1.45c0-.19,4.72-19.09,21.3-30.14a1.84,1.84,0,0,0-2-3.06A56.11,56.11,0,0,0,5.15,38.32C2.71,29.9,3.35,22.9,7.08,17.52,14.43,6.91,31.86,4.35,42.38,3.81c-2.27,3.31-4.74,9.39-4.74,20.11,0,5.74-1.63,10.16-4.84,13.14-5.14,4.77-13.5,5.22-19.61,4.76a1.84,1.84,0,1,0-.28,3.66c1.22.1,2.53.16,3.89.16,6.22,0,13.48-1.22,18.5-5.88,4-3.7,6-9,6-15.84,0-16.74,6.31-20.41,6.34-20.43a1.85,1.85,0,0,0,1-2.08" transform="translate(0 0)" fill="#536451"/></g></svg>