<svg xmlns="http://www.w3.org/2000/svg" xmlns:xlink="http://www.w3.org/1999/xlink" viewBox="0 0 40.01 53.01"><defs><clipPath id="a" transform="translate(0 0)"><rect width="40.01" height="53.01" fill="none"/></clipPath></defs><g clip-path="url(#a)"><path d="M11.88,0,0,11.88V48.05a5,5,0,0,0,5,5H35.05a5,5,0,0,0,5-5V5a5,5,0,0,0-5-5Z" transform="translate(0 0)" fill="#e1f10d"/><rect x="10.01" y="19.51" width="20" height="1" fill="#536451"/><rect x="10.01" y="26.51" width="20" height="1" fill="#536451"/><rect x="10.01" y="33.51" width="20" height="1" fill="#536451"/><path d="M11.88,0,0,11.88H7.59a4.29,4.29,0,0,0,4.29-4.29Z" transform="translate(0 0)" fill="#c9ce11"/></g></svg>