<svg xmlns="http://www.w3.org/2000/svg" xmlns:xlink="http://www.w3.org/1999/xlink" viewBox="0 0 107.95 10.94"><polygon points="7.05 0.18 2.58 4.9 2.58 0.18 0 0.18 0 10.77 2.58 10.77 2.58 8.08 3.88 6.73 7.14 10.73 7.17 10.77 10.21 10.77 5.58 4.91 9.98 0.18 7.05 0.18"/><path d="M18.71.71a6.13,6.13,0,0,0-3-.71,6.24,6.24,0,0,0-3,.71,5.28,5.28,0,0,0-2.07,2A5.34,5.34,0,0,0,10,5.47a5.28,5.28,0,0,0,2.82,4.77,6.24,6.24,0,0,0,3,.71,6.13,6.13,0,0,0,3-.71,5.42,5.42,0,0,0,2.07-2,5.26,5.26,0,0,0,.76-2.81,5.25,5.25,0,0,0-.76-2.8,5.35,5.35,0,0,0-2.07-2M17.37,8.3a3.21,3.21,0,0,1-1.61.41,3.25,3.25,0,0,1-1.62-.41A3,3,0,0,1,13,7.15a3.33,3.33,0,0,1-.42-1.68A3.35,3.35,0,0,1,13,3.79a3,3,0,0,1,1.13-1.14,3.25,3.25,0,0,1,1.62-.41,3.21,3.21,0,0,1,1.61.41,3,3,0,0,1,1.14,1.14,3.45,3.45,0,0,1,.41,1.68,3.43,3.43,0,0,1-.41,1.68A3.07,3.07,0,0,1,17.37,8.3"/><path d="M31.8,6.1a3.65,3.65,0,0,0,.57-2A3.76,3.76,0,0,0,31.81,2,3.68,3.68,0,0,0,30.2.65,5.93,5.93,0,0,0,27.76.18H23.17V10.77h2.59V7.87h2.07l2,2.9h2.81l-2.37-3.4A3.6,3.6,0,0,0,31.8,6.1m-6-3.77h1.87a2.49,2.49,0,0,1,1.59.44,1.56,1.56,0,0,1,.53,1.28,1.53,1.53,0,0,1-.53,1.26,2.43,2.43,0,0,1-1.59.46H25.76Z"/><polygon points="41.25 6.33 36.25 0.21 36.22 0.18 34.09 0.18 34.09 10.77 36.65 10.77 36.65 4.62 41.67 10.73 41.7 10.77 43.82 10.77 43.82 0.18 41.25 0.18 41.25 6.33"/><path d="M54.19.71a6.17,6.17,0,0,0-3-.71,6.24,6.24,0,0,0-3,.71,5.35,5.35,0,0,0-2.07,2,5.43,5.43,0,0,0-.75,2.8,5.44,5.44,0,0,0,.75,2.81,5.42,5.42,0,0,0,2.07,2,6.24,6.24,0,0,0,3,.71,6.17,6.17,0,0,0,3-.71,5.42,5.42,0,0,0,2.07-2A5.37,5.37,0,0,0,57,5.47,5.28,5.28,0,0,0,54.19.71M52.85,8.3a3.41,3.41,0,0,1-3.24,0,3,3,0,0,1-1.13-1.15,3.43,3.43,0,0,1-.41-1.68,3.45,3.45,0,0,1,.41-1.68,3,3,0,0,1,1.13-1.14,3.41,3.41,0,0,1,3.24,0A3,3,0,0,1,54,3.79a3.45,3.45,0,0,1,.41,1.68A3.43,3.43,0,0,1,54,7.15,3,3,0,0,1,52.85,8.3"/><polygon points="68.62 0.18 65.69 0.18 61.22 4.9 61.22 0.18 58.64 0.18 58.64 10.77 61.22 10.77 61.22 8.08 62.52 6.73 65.78 10.73 65.81 10.77 68.85 10.77 64.22 4.91 68.62 0.18"/><path d="M77.35.71A6.13,6.13,0,0,0,74.4,0a6.24,6.24,0,0,0-3,.71,5.28,5.28,0,0,0-2.82,4.76,5.35,5.35,0,0,0,.75,2.81,5.42,5.42,0,0,0,2.07,2,6.24,6.24,0,0,0,3,.71,6.13,6.13,0,0,0,2.95-.71,5.45,5.45,0,0,0,2.08-2,5.37,5.37,0,0,0,.75-2.81,5.34,5.34,0,0,0-.75-2.8,5.38,5.38,0,0,0-2.08-2M76,8.3a3.41,3.41,0,0,1-3.24,0,3,3,0,0,1-1.13-1.15,3.32,3.32,0,0,1-.41-1.68,3.35,3.35,0,0,1,.41-1.68,3,3,0,0,1,1.13-1.14,3.41,3.41,0,0,1,3.24,0,3,3,0,0,1,1.13,1.14,3.45,3.45,0,0,1,.41,1.68,3.43,3.43,0,0,1-.41,1.68A3,3,0,0,1,76,8.3"/><path d="M88.84.65A5.85,5.85,0,0,0,86.41.18h-4.6V10.77H84.4V7.9h2a6,6,0,0,0,2.43-.46,3.58,3.58,0,0,0,1.61-1.35,3.64,3.64,0,0,0,.57-2A3.68,3.68,0,0,0,90.45,2,3.62,3.62,0,0,0,88.84.65M84.4,2.33h1.87a2.49,2.49,0,0,1,1.59.44,1.57,1.57,0,0,1,.53,1.28,1.54,1.54,0,0,1-.53,1.25,2.43,2.43,0,0,1-1.59.45H84.4Z"/><rect x="92.54" y="0.18" width="2.59" height="10.59"/><path d="M103.21.18h-2.5L96.05,10.64l-.06.13h2.68l.92-2.23h4.7l.9,2.17,0,.06H108Zm.25,6.34h-3L102,2.88Z"/></svg>