<svg width="0" height="0" class="hidden">
  <symbol xmlns="http://www.w3.org/2000/svg" xmlns:xlink="http://www.w3.org/1999/xlink" viewBox="0 0 24 24" id="ic_arr_hor">
    <polyline points="10.09 7.45 14.67 12.04 10.16 16.55" fill="none" stroke="currentColor" stroke-miterlimit="10" stroke-width="1.2"></polyline>
    <path d="M12,1.2A10.8,10.8,0,1,1,1.2,12,10.81,10.81,0,0,1,12,1.2M12,0A12,12,0,1,0,24,12,12,12,0,0,0,12,0" fill="currentColor"></path>
  </symbol>
  <symbol xmlns="http://www.w3.org/2000/svg" xmlns:xlink="http://www.w3.org/1999/xlink" viewBox="0 0 9.95 5.86" id="ic_arr_ver">
    <polyline points="0.42 5.44 5.01 0.85 9.53 5.36" fill="none" stroke="currentColor" stroke-miterlimit="10" stroke-width="1.2"></polyline>
  </symbol>
  <symbol xmlns="http://www.w3.org/2000/svg" xmlns:xlink="http://www.w3.org/1999/xlink" viewBox="0 0 21 24" id="ic_cart">
    <path d="M19.5,7.5H16.12V5.62a5.63,5.63,0,0,0-11.25,0V7.5H1.5A1.5,1.5,0,0,0,0,9V20.25A3.75,3.75,0,0,0,3.75,24h13.5A3.75,3.75,0,0,0,21,20.25V9a1.5,1.5,0,0,0-1.5-1.5M6.07,5.62a4.43,4.43,0,0,1,8.85,0V7.5H6.07ZM19.8,20.25a2.55,2.55,0,0,1-2.55,2.55H3.75A2.55,2.55,0,0,1,1.2,20.25V9a.29.29,0,0,1,.3-.3h18a.29.29,0,0,1,.3.3Z" fill="currentColor"></path>
  </symbol>
  <symbol xmlns="http://www.w3.org/2000/svg" xmlns:xlink="http://www.w3.org/1999/xlink" viewBox="0 0 21 24" id="ic_cart_a">
    <path d="M19.5,7.5H16.12V5.62a5.63,5.63,0,0,0-11.25,0V7.5H1.5A1.5,1.5,0,0,0,0,9V20.25A3.75,3.75,0,0,0,3.75,24h13.5A3.75,3.75,0,0,0,21,20.25V9a1.5,1.5,0,0,0-1.5-1.5M6.07,5.62a4.43,4.43,0,0,1,8.85,0V7.5H6.07ZM19.8,20.25a2.55,2.55,0,0,1-2.55,2.55H3.75A2.55,2.55,0,0,1,1.2,20.25V9a.29.29,0,0,1,.3-.3h18a.29.29,0,0,1,.3.3Z" fill="currentColor"></path>
    <path d="M15.35,11.3,8.92,17.72,6.19,15a.6.6,0,1,0-.85.85L8.5,19a.62.62,0,0,0,.85,0l6.84-6.85a.6.6,0,0,0-.84-.85" fill="currentColor"></path>
  </symbol>
  <symbol xmlns="http://www.w3.org/2000/svg" xmlns:xlink="http://www.w3.org/1999/xlink" viewBox="0 0 21 24" id="ic_cart_h">
    <path d="M19.5,7.5H16.12V5.62a5.63,5.63,0,0,0-11.25,0V7.5H1.5A1.5,1.5,0,0,0,0,9V20.25A3.75,3.75,0,0,0,3.75,24h13.5A3.75,3.75,0,0,0,21,20.25V9a1.5,1.5,0,0,0-1.5-1.5M6.07,5.62a4.43,4.43,0,0,1,8.85,0V7.5H6.07ZM19.8,20.25a2.55,2.55,0,0,1-2.55,2.55H3.75A2.55,2.55,0,0,1,1.2,20.25V9a.29.29,0,0,1,.3-.3h18a.29.29,0,0,1,.3.3Z" fill="currentColor"></path>
    <polygon points="11.1 11.76 9.9 11.76 9.9 15.15 6.51 15.15 6.51 16.35 9.9 16.35 9.9 19.74 11.1 19.74 11.1 16.35 14.49 16.35 14.49 15.15 11.1 15.15 11.1 11.76" fill="currentColor"></polygon>
  </symbol>
  <symbol xmlns="http://www.w3.org/2000/svg" xmlns:xlink="http://www.w3.org/1999/xlink" viewBox="0 0 19.09 14.57" id="ic_check">
    <polyline points="1.41 5.8 7.35 11.74 17.68 1.41" fill="none" stroke="currentColor" stroke-miterlimit="10" stroke-width="4"></polyline>
  </symbol>
  <symbol xmlns="http://www.w3.org/2000/svg" xmlns:xlink="http://www.w3.org/1999/xlink" viewBox="0 0 21 24" id="ic_clear">
    <path d="M19.5,7.5H16.12V5.62a5.63,5.63,0,0,0-11.25,0V7.5H1.5A1.5,1.5,0,0,0,0,9V20.25A3.75,3.75,0,0,0,3.75,24h13.5A3.75,3.75,0,0,0,21,20.25V9a1.5,1.5,0,0,0-1.5-1.5M6.87,5.62a3.63,3.63,0,0,1,7.25,0V7.5H6.87ZM19,20.25A1.76,1.76,0,0,1,17.25,22H3.75A1.75,1.75,0,0,1,2,20.25V9.5H19Z" fill="currentColor"></path>
    <polygon points="13.9 10.97 10.49 14.37 7.09 10.97 5.68 12.38 9.08 15.78 5.75 19.12 7.16 20.53 10.49 17.2 13.83 20.53 15.24 19.12 11.91 15.78 15.31 12.38 13.9 10.97" fill="currentColor"></polygon>
  </symbol>
  <symbol xmlns="http://www.w3.org/2000/svg" xmlns:xlink="http://www.w3.org/1999/xlink" viewBox="0 0 30 30" id="ic_delete">
    <polyline points="9.26 9.31 15 15.05 9.36 20.69" fill="none" stroke="currentColor" stroke-linecap="round" stroke-miterlimit="10" stroke-width="1.2"></polyline>
    <polyline points="20.74 9.31 15 15.05 20.64 20.69" fill="none" stroke="currentColor" stroke-linecap="round" stroke-miterlimit="10" stroke-width="1.2"></polyline>
    <path d="M15,1.2A13.8,13.8,0,1,1,1.2,15,13.81,13.81,0,0,1,15,1.2M15,0A15,15,0,1,0,30,15,15,15,0,0,0,15,0" fill="currentColor"></path>
  </symbol>
  <symbol xmlns="http://www.w3.org/2000/svg" xmlns:xlink="http://www.w3.org/1999/xlink" viewBox="0 0 27 24" id="ic_favorite">
    <path d="M7.55,1.2a6.68,6.68,0,0,1,5,2.46l.91,1.06.91-1.06a6.66,6.66,0,0,1,5-2.45,6.1,6.1,0,0,1,3.91,1.48,6.71,6.71,0,0,1,1,9.44c-2.13,2.72-8.71,8.62-10.84,10.49-2.12-1.87-8.71-7.77-10.84-10.49a6.78,6.78,0,0,1,1-9.45A5.89,5.89,0,0,1,7.55,1.2m0-1.2A7.08,7.08,0,0,0,2.91,1.76a8,8,0,0,0-1.2,11.11c2.2,2.83,8.89,8.8,11.08,10.73a1.38,1.38,0,0,0,.51.37.63.63,0,0,0,.19,0,.58.58,0,0,0,.19,0,1.38,1.38,0,0,0,.51-.37c2.19-1.93,8.88-7.9,11.09-10.73A8,8,0,0,0,24.07,1.76,7.26,7.26,0,0,0,19.4,0a7.85,7.85,0,0,0-5.91,2.86A7.91,7.91,0,0,0,7.55,0" fill="currentColor"></path>
  </symbol>
  <symbol xmlns="http://www.w3.org/2000/svg" xmlns:xlink="http://www.w3.org/1999/xlink" viewBox="0 0 27 24" id="ic_favorite_a">
    <path d="M13.49,2.87c-2.7-3.14-7.2-4-10.58-1.11a8,8,0,0,0-1.2,11.11c2.2,2.83,8.89,8.8,11.08,10.74a1.45,1.45,0,0,0,.51.36.62.62,0,0,0,.38,0,1.45,1.45,0,0,0,.51-.36c2.19-1.94,8.88-7.91,11.08-10.74a7.94,7.94,0,0,0-1.2-11.11c-3.44-2.85-7.88-2-10.58,1.11" fill="currentColor"></path>
  </symbol>
  <symbol xmlns="http://www.w3.org/2000/svg" xmlns:xlink="http://www.w3.org/1999/xlink" viewBox="0 0 27 24" id="ic_favorite_h">
    <path d="M13.47,23.4l-.28-.24c-2-1.8-8.82-7.85-11-10.66A7.37,7.37,0,0,1,3.3,2.22,6.49,6.49,0,0,1,7.55.6,7.34,7.34,0,0,1,13,3.26l.45.54L14,3.26A7.26,7.26,0,0,1,19.4.61a6.71,6.71,0,0,1,4.29,1.61A7.38,7.38,0,0,1,24.8,12.5c-2.18,2.8-9,8.86-11,10.66a3.75,3.75,0,0,1-.3.24h0" fill="#e1f10d"></path>
    <path d="M7.55,1.2a6.68,6.68,0,0,1,5,2.46l.91,1.06.91-1.06a6.66,6.66,0,0,1,5-2.45,6.1,6.1,0,0,1,3.91,1.48,6.71,6.71,0,0,1,1,9.44c-2.13,2.72-8.71,8.62-10.84,10.49-2.12-1.87-8.71-7.77-10.84-10.49a6.78,6.78,0,0,1,1-9.45A5.89,5.89,0,0,1,7.55,1.2m0-1.2A7.08,7.08,0,0,0,2.91,1.76a8,8,0,0,0-1.2,11.11c2.2,2.83,8.89,8.8,11.08,10.73a1.38,1.38,0,0,0,.51.37.63.63,0,0,0,.19,0,.58.58,0,0,0,.19,0,1.38,1.38,0,0,0,.51-.37c2.19-1.93,8.88-7.9,11.09-10.73A8,8,0,0,0,24.07,1.76,7.26,7.26,0,0,0,19.4,0a7.85,7.85,0,0,0-5.91,2.86A7.91,7.91,0,0,0,7.55,0" fill="currentColor"></path>
    <polygon points="17.49 10.74 14.1 10.74 14.1 7.36 12.9 7.36 12.9 10.74 9.51 10.74 9.51 11.94 12.9 11.94 12.9 15.33 14.1 15.33 14.1 11.94 17.49 11.94 17.49 10.74" fill="currentColor"></polygon>
  </symbol>
  <symbol xmlns="http://www.w3.org/2000/svg" xmlns:xlink="http://www.w3.org/1999/xlink" viewBox="0 0 22 21" id="ic_file">
    <path d="M1.4,18.13a4.93,4.93,0,0,0,7.1,0l8.57-8.66a3.07,3.07,0,0,0,0-4.33,2.92,2.92,0,0,0-4.23,0l-7.1,7.25a1,1,0,0,0,0,1.41.94.94,0,0,0,1.38,0l7.1-7.25a.92.92,0,0,1,1.37,0,1,1,0,0,1,0,1.41L7,16.72a2.93,2.93,0,0,1-4.24,0,3.09,3.09,0,0,1,0-4.33l8.58-8.66a4.91,4.91,0,0,1,7.09,0,5.19,5.19,0,0,1,0,7.25l-8.22,8.31a1,1,0,0,0,0,1.41.94.94,0,0,0,1.38,0l8.32-8.41a7.28,7.28,0,0,0,0-10.17,6.91,6.91,0,0,0-9.95,0L1.4,10.78a5.52,5.52,0,0,0,0,7.35" fill="currentColor"></path>
  </symbol>
  <symbol xmlns="http://www.w3.org/2000/svg" xmlns:xlink="http://www.w3.org/1999/xlink" viewBox="0 0 25.25 24" id="ic_logout">
    <path d="M25.18,13.28A12,12,0,0,0,14.53.07H12.4A11.85,11.85,0,0,0,9.09.74h0L9,.79H7.62a1,1,0,0,0-.53.78,1.09,1.09,0,0,0,.11.58,1,1,0,0,0,1.36.41,10,10,0,1,1,3.62,18.77,9.72,9.72,0,0,1-3.61-1.1,1,1,0,0,0-1.35.42.94.94,0,0,0-.11.36,1,1,0,0,0,.53,1h.5l0,0H8.6l.05,0h.11l0,0h.92l0,0h.45l0,0H12A12,12,0,0,0,25.18,13.28" fill="currentColor"></path>
    <path d="M13.36,11H3.41l2.81-2.8a1,1,0,0,0,0-1.42,1,1,0,0,0-1.41,0L.29,11.26a1,1,0,0,0-.21.32,1,1,0,0,0,0,.77,1,1,0,0,0,.21.32l4.59,4.59a1,1,0,0,0,.71.29,1,1,0,0,0,.71-.29,1,1,0,0,0,0-1.41L3.41,13h10a1,1,0,0,0,0-2" fill="currentColor"></path>
  </symbol>
  <symbol xmlns="http://www.w3.org/2000/svg" xmlns:xlink="http://www.w3.org/1999/xlink" viewBox="0 0 23 24.38" id="ic_message">
    <path d="M19.85,1.8A2.55,2.55,0,0,1,22.4,4.35V14.4a2.5,2.5,0,0,1-2.5,2.5H12.69l-.15,1A7,7,0,0,1,6.67,23.7V16.9H4.3a2.5,2.5,0,0,1-2.5-2.51v-10A2.55,2.55,0,0,1,4.35,1.8h15.5m0-1.2H4.35A3.75,3.75,0,0,0,.6,4.35v10A3.71,3.71,0,0,0,4.3,18.1H5.47V25c7.28,0,8.25-6.87,8.25-6.87H19.9a3.7,3.7,0,0,0,3.7-3.7v-10A3.75,3.75,0,0,0,19.85.6" transform="translate(-0.6 -0.6)" fill="currentColor"></path>
    <rect x="6.48" y="6.31" width="10.04" height="1.2" fill="currentColor"></rect>
    <rect x="6.48" y="10.04" width="10.04" height="1.2" fill="currentColor"></rect>
  </symbol>
  <symbol xmlns="http://www.w3.org/2000/svg" xmlns:xlink="http://www.w3.org/1999/xlink" viewBox="0 0 23 24.38" id="ic_message_a">
    <path d="M19.85,1.8A2.55,2.55,0,0,1,22.4,4.35V14.4a2.5,2.5,0,0,1-2.5,2.5H12.69l-.15,1A7,7,0,0,1,6.67,23.7V16.9H4.3a2.5,2.5,0,0,1-2.5-2.51v-10A2.55,2.55,0,0,1,4.35,1.8h15.5m0-1.2H4.35A3.75,3.75,0,0,0,.6,4.35v10A3.71,3.71,0,0,0,4.3,18.1H5.47V25c7.28,0,8.25-6.87,8.25-6.87H19.9a3.7,3.7,0,0,0,3.7-3.7v-10A3.75,3.75,0,0,0,19.85.6" transform="translate(-0.6 -0.6)" fill="currentColor"></path>
    <polyline points="6.5 8.47 9.66 11.63 16.5 4.78" fill="none" stroke="currentColor" stroke-linecap="round" stroke-linejoin="round" stroke-width="1.2"></polyline>
  </symbol>
  <symbol xmlns="http://www.w3.org/2000/svg" xmlns:xlink="http://www.w3.org/1999/xlink" viewBox="0 0 17.15 17.15" id="ic_search">
    <path d="M10.22,1.2A5.73,5.73,0,1,1,4.5,6.93,5.74,5.74,0,0,1,10.22,1.2m0-1.2a6.93,6.93,0,1,0,6.93,6.93A6.92,6.92,0,0,0,10.22,0" fill="currentColor"></path>
    <line x1="4.41" y1="12.74" x2="0.42" y2="16.73" fill="none" stroke="currentColor" stroke-miterlimit="10" stroke-width="1.2"></line>
  </symbol>
  <symbol xmlns="http://www.w3.org/2000/svg" xmlns:xlink="http://www.w3.org/1999/xlink" viewBox="0 0 17.15 17.15" id="ic_search_a">
    <path d="M10.22,13.26a6.33,6.33,0,1,1,6.33-6.33,6.33,6.33,0,0,1-6.33,6.33" fill="#e1f10d"></path>
    <path d="M10.22,1.2A5.73,5.73,0,1,1,4.5,6.93,5.74,5.74,0,0,1,10.22,1.2m0-1.2a6.93,6.93,0,1,0,6.93,6.93A6.92,6.92,0,0,0,10.22,0" fill="currentColor"></path>
    <line x1="4.41" y1="12.74" x2="0.42" y2="16.73" fill="none" stroke="currentColor" stroke-miterlimit="10" stroke-width="1.2"></line>
  </symbol>
  <symbol xmlns="http://www.w3.org/2000/svg" xmlns:xlink="http://www.w3.org/1999/xlink" viewBox="0 0 23.85 20" id="ic_tg">
    <path d="M23.78,1.82l-3.6,17c-.27,1.2-1,1.5-2,.93l-5.49-4-2.64,2.55A1.41,1.41,0,0,1,9,18.77l.4-5.59L19.52,4c.44-.4-.09-.61-.69-.22L6.27,11.69.86,10c-1.18-.37-1.2-1.18.25-1.74L22.26.11c1-.37,1.84.21,1.52,1.71" fill="currentColor"></path>
  </symbol>
  <symbol xmlns="http://www.w3.org/2000/svg" xmlns:xlink="http://www.w3.org/1999/xlink" viewBox="0 0 24.04 24" id="ic_user">
    <path d="M12,1.2c2.65,0,4.8,2.69,4.8,6s-2.15,6-4.8,6-4.8-2.69-4.8-6,2.15-6,4.8-6M12,0C8.71,0,6,3.22,6,7.2s2.69,7.2,6,7.2,6-3.22,6-7.2S15.33,0,12,0" fill="currentColor"></path>
    <path d="M17,16.51a1.84,1.84,0,0,1,.6.1,9.73,9.73,0,0,1,5.1,4.45,1.09,1.09,0,0,1,0,1.11,1.37,1.37,0,0,1-1.17.63h-19a1.39,1.39,0,0,1-1.19-.65.94.94,0,0,1,0-1,9.74,9.74,0,0,1,5.14-4.47l0,0,0,0a1.12,1.12,0,0,1,.47-.1,1.8,1.8,0,0,1,.63.12,8.58,8.58,0,0,0,8.82-.06,1,1,0,0,1,.53-.12m0-1.2a2.21,2.21,0,0,0-1.15.29A7.14,7.14,0,0,1,12,16.68,7.14,7.14,0,0,1,8.18,15.6,3.18,3.18,0,0,0,7,15.37a2.26,2.26,0,0,0-1,.23,10.94,10.94,0,0,0-5.76,5A2.37,2.37,0,0,0,2.54,24h19a2.43,2.43,0,0,0,2.28-3.48,10.94,10.94,0,0,0-5.76-5,3.15,3.15,0,0,0-1-.17" fill="currentColor"></path>
  </symbol>
  <symbol xmlns="http://www.w3.org/2000/svg" xmlns:xlink="http://www.w3.org/1999/xlink" viewBox="0 0 7.59 8.21" id="ic_video_play">
    <path d="M0,.7V7.51a.7.7,0,0,0,1,.61l6.18-3.4a.7.7,0,0,0,0-1.23L1,.09A.7.7,0,0,0,0,.7" fill="currentColor"></path>
  </symbol>
  <symbol xmlns="http://www.w3.org/2000/svg" xmlns:xlink="http://www.w3.org/1999/xlink" viewBox="0 0 19.9 20" id="ic_whatsapp">
    <path d="M17,2.91A9.8,9.8,0,0,0,10,0,9.9,9.9,0,0,0,1.41,14.86L0,20l5.25-1.38A9.91,9.91,0,0,0,10,19.83h0A9.92,9.92,0,0,0,19.9,9.92a9.81,9.81,0,0,0-2.9-7M14.84,13.45a2.52,2.52,0,0,1-1.67,1.18,3.43,3.43,0,0,1-1.56-.1A14.3,14.3,0,0,1,10.2,14,11,11,0,0,1,6,10.27,4.86,4.86,0,0,1,5,7.71a2.82,2.82,0,0,1,.86-2.07.92.92,0,0,1,.67-.31H7c.15,0,.36-.06.56.43s.7,1.71.76,1.84A.46.46,0,0,1,8.3,8a1.46,1.46,0,0,1-.25.41c-.12.15-.26.33-.37.44s-.25.25-.11.5A7.57,7.57,0,0,0,9,11.11a7.19,7.19,0,0,0,2,1.23c.25.12.39.1.54-.07s.62-.72.78-1,.33-.2.56-.12,1.44.68,1.69.8.41.19.48.29a2.08,2.08,0,0,1-.15,1.18" fill-rule="evenodd" fill="currentColor"></path>
  </symbol>
  <symbol xmlns="http://www.w3.org/2000/svg" xmlns:xlink="http://www.w3.org/1999/xlink" viewBox="0 0 28.57 20" id="ic_youtube">
    <path d="M28,3.12A3.56,3.56,0,0,0,25.45.6C23.22,0,14.28,0,14.28,0S5.35,0,3.12.6A3.56,3.56,0,0,0,.6,3.12,37,37,0,0,0,0,10a37,37,0,0,0,.6,6.88A3.56,3.56,0,0,0,3.12,19.4c2.23.6,11.16.6,11.16.6s8.94,0,11.17-.6A3.56,3.56,0,0,0,28,16.88a37,37,0,0,0,.6-6.88A37,37,0,0,0,28,3.12M11.42,14.29V5.72L18.85,10Z" fill="currentColor"></path>
  </symbol>
</svg>